<svg width="44" height="44" viewBox="0 0 44 44" fill="none" xmlns="http://www.w3.org/2000/svg">
<rect width="44" height="44" rx="8" fill="#F2F2F2"/>
<path d="M22.1738 30.1602H32.0738" stroke="black" stroke-width="2" stroke-linecap="round" stroke-linejoin="round"/>
<path d="M27.1244 12.0102C27.562 11.5725 28.1555 11.3267 28.7744 11.3267C29.0808 11.3267 29.3843 11.3871 29.6674 11.5043C29.9505 11.6216 30.2077 11.7935 30.4244 12.0102C30.6411 12.2268 30.813 12.4841 30.9302 12.7672C31.0475 13.0503 31.1079 13.3537 31.1079 13.6602C31.1079 13.9666 31.0475 14.27 30.9302 14.5531C30.813 14.8362 30.6411 15.0935 30.4244 15.3102L16.6744 29.0602L12.2744 30.1602L13.3744 25.7602L27.1244 12.0102Z" stroke="black" stroke-width="2" stroke-linecap="round" stroke-linejoin="round"/>
</svg>
