<svg width="24" height="24" viewBox="0 0 24 24" fill="none" xmlns="http://www.w3.org/2000/svg">
<path d="M3 11.5C2.99656 12.8199 3.30493 14.1219 3.9 15.3C4.60557 16.7117 5.69025 17.8992 7.03255 18.7293C8.37485 19.5594 9.92176 19.9994 11.5 20C12.8199 20.0034 14.1219 19.6951 15.3 19.1L21 21L19.1 15.3C19.6951 14.1219 20.0034 12.8199 20 11.5C19.9994 9.92176 19.5594 8.37485 18.7293 7.03255C17.8992 5.69025 16.7117 4.60557 15.3 3.9C14.1219 3.30493 12.8199 2.99656 11.5 3H11C8.91565 3.11499 6.94696 3.99476 5.47086 5.47086C3.99476 6.94695 3.11499 8.91565 3 11V11.5Z" stroke="#656566" stroke-width="2" stroke-linecap="round" stroke-linejoin="round"/>
</svg>
