<svg width="20" height="21" viewBox="0 0 20 21" fill="none" xmlns="http://www.w3.org/2000/svg">
<path d="M13.3335 18V16.3333C13.3335 15.4493 12.9823 14.6014 12.3572 13.9763C11.7321 13.3512 10.8842 13 10.0002 13H4.16683C3.28277 13 2.43493 13.3512 1.80981 13.9763C1.18469 14.6014 0.833496 15.4493 0.833496 16.3333V18" stroke="#656566" stroke-width="1.2" stroke-linecap="round" stroke-linejoin="round"/>
<path d="M7.08333 9.66667C8.92428 9.66667 10.4167 8.17428 10.4167 6.33333C10.4167 4.49238 8.92428 3 7.08333 3C5.24238 3 3.75 4.49238 3.75 6.33333C3.75 8.17428 5.24238 9.66667 7.08333 9.66667Z" stroke="#656566" stroke-width="1.2" stroke-linecap="round" stroke-linejoin="round"/>
<path d="M16.6665 7.16666V12.1667" stroke="#656566" stroke-width="1.2" stroke-linecap="round" stroke-linejoin="round"/>
<path d="M19.1665 9.66666H14.1665" stroke="#656566" stroke-width="1.2" stroke-linecap="round" stroke-linejoin="round"/>
</svg>
